<svg width="21" height="20" viewBox="0 0 21 20" fill="none" xmlns="http://www.w3.org/2000/svg">
<g clip-path="url(#clip0_315_622)">
<path d="M10.5 20C7.84784 20 5.3043 18.9464 3.42893 17.0711C1.55357 15.1957 0.5 12.6522 0.5 10C0.5 7.34784 1.55357 4.8043 3.42893 2.92893C5.3043 1.05357 7.84784 0 10.5 0C13.1522 0 15.6957 1.05357 17.5711 2.92893C19.4464 4.8043 20.5 7.34784 20.5 10C20.5 12.6522 19.4464 15.1957 17.5711 17.0711C15.6957 18.9464 13.1522 20 10.5 20ZM10.815 3.835C10.7442 3.7904 10.6648 3.76123 10.582 3.7494C10.4991 3.73757 10.4147 3.74335 10.3343 3.76635C10.2538 3.78935 10.1791 3.82907 10.1151 3.8829C10.051 3.93673 9.99902 4.00346 9.9625 4.07875L8.4625 7.11875L5.1075 7.60625C4.99662 7.62151 4.89227 7.66766 4.80639 7.73944C4.72051 7.81122 4.65657 7.90572 4.62188 8.01214C4.58719 8.11856 4.58315 8.23259 4.61023 8.34119C4.63731 8.44979 4.69441 8.54858 4.775 8.62625L7.205 10.9913L6.63 14.3337C6.61155 14.4436 6.6241 14.5564 6.66626 14.6595C6.70842 14.7626 6.77851 14.852 6.86864 14.9174C6.95878 14.9829 7.06538 15.0219 7.17648 15.0301C7.28757 15.0383 7.39875 15.0153 7.4975 14.9637L10.5 13.3862L13.5 14.9625C13.5987 15.0145 13.71 15.0379 13.8213 15.0299C13.9326 15.022 14.0395 14.983 14.1298 14.9174C14.2201 14.8519 14.2902 14.7623 14.3322 14.6589C14.3742 14.5555 14.3865 14.4425 14.3675 14.3325L13.795 10.9913L16.2225 8.625C16.3018 8.54696 16.3577 8.44838 16.3841 8.34033C16.4104 8.23227 16.4062 8.119 16.3718 8.01323C16.3374 7.90745 16.2742 7.81334 16.1894 7.74146C16.1045 7.66958 16.0012 7.62276 15.8912 7.60625L12.535 7.11875L11.035 4.07875C10.9863 3.97824 10.91 3.89369 10.815 3.835Z" fill="#B3FF43"/>
</g>
<defs>
<clipPath id="clip0_315_622">
<rect width="20" height="20" fill="white" transform="translate(0.5)"/>
</clipPath>
</defs>
</svg>
