<svg width="60" height="51" viewBox="0 0 60 51" fill="none" xmlns="http://www.w3.org/2000/svg">
<path d="M30 28.625C34.075 28.625 37.675 30.25 40.6 32.375C43.3 34.375 45 38.875 45 43.75V46.3333C45 48.625 43.875 50.5 42.5 50.5H17.5C16.125 50.5 15 48.625 15 46.3333V43.7917C15 38.875 16.7 34.375 19.4 32.4167C22.325 30.25 25.925 28.625 30 28.625ZM10 29.6667C12.75 29.6667 15 25.9167 15 21.3333C15 16.75 12.75 13 10 13C7.25 13 5 16.75 5 21.3333C5 25.9167 7.25 29.6667 10 29.6667ZM12.825 34.25C11.9 34 10.975 33.8333 10 33.8333C7.525 33.8333 5.175 34.7083 3.05 36.25C2.14428 36.8952 1.37231 37.9699 0.830046 39.3403C0.287782 40.7108 -0.000859216 42.3167 1.92123e-06 43.9583V46.3333C1.92123e-06 48.625 1.125 50.5 2.5 50.5H11.25V43.7917C11.25 40.3333 11.825 37.0833 12.825 34.25ZM50 29.6667C52.75 29.6667 55 25.9167 55 21.3333C55 16.75 52.75 13 50 13C47.25 13 45 16.75 45 21.3333C45 25.9167 47.25 29.6667 50 29.6667ZM60 43.9583C60 40.5833 58.8 37.5833 56.95 36.25C54.7578 34.6558 52.3918 33.833 50 33.8333C49.025 33.8333 48.1 34 47.175 34.25C48.175 37.0833 48.75 40.3333 48.75 43.7917V50.5H57.5C58.875 50.5 60 48.625 60 46.3333V43.9583ZM30 0.5C34.15 0.5 37.5 6.08333 37.5 13C37.5 19.9167 34.15 25.5 30 25.5C25.85 25.5 22.5 19.9167 22.5 13C22.5 6.08333 25.85 0.5 30 0.5Z" fill="#CCCCCC"/>
</svg>
