<svg width="50" height="51" viewBox="0 0 50 51" fill="none" xmlns="http://www.w3.org/2000/svg">
<path d="M21.1111 38.125L40.6944 20.5L36.8055 17L21.1111 31.125L13.1944 24L9.30555 27.5L21.1111 38.125ZM5.55555 50.5C4.02778 50.5 2.72037 50.0108 1.63333 49.0325C0.546296 48.0542 0.00185185 46.8767 0 45.5V10.5C0 9.125 0.544445 7.94833 1.63333 6.97C2.72222 5.99167 4.02963 5.50167 5.55555 5.5H17.2222C17.8241 4 18.8315 2.79167 20.2444 1.875C21.6574 0.958333 23.2426 0.5 25 0.5C26.7574 0.5 28.3435 0.958333 29.7583 1.875C31.1731 2.79167 32.1796 4 32.7778 5.5H44.4444C45.9722 5.5 47.2805 5.99 48.3694 6.97C49.4583 7.95 50.0018 9.12667 50 10.5V45.5C50 46.875 49.4565 48.0525 48.3694 49.0325C47.2824 50.0125 45.9741 50.5017 44.4444 50.5H5.55555ZM5.55555 45.5H44.4444V10.5H5.55555V45.5ZM25 8.625C25.6018 8.625 26.1 8.4475 26.4944 8.0925C26.8889 7.7375 27.0852 7.29 27.0833 6.75C27.0815 6.21 26.8843 5.7625 26.4917 5.4075C26.0991 5.0525 25.6018 4.875 25 4.875C24.3981 4.875 23.9009 5.0525 23.5083 5.4075C23.1157 5.7625 22.9185 6.21 22.9167 6.75C22.9148 7.29 23.112 7.73833 23.5083 8.095C23.9046 8.45167 24.4018 8.62833 25 8.625Z" fill="#CCCCCC"/>
</svg>
