<svg width="23" height="23" viewBox="0 0 23 23" fill="none" xmlns="http://www.w3.org/2000/svg">
<path d="M8.5 21.5V16.5C8.5 15.557 8.5 15.086 8.207 14.793C7.914 14.5 7.443 14.5 6.5 14.5H6C4.585 14.5 3.878 14.5 3.44 14.94C3 15.379 3 16.086 3 17.5V21.5H8.5ZM8.5 21.5H14.5M8.5 21.5V15.5C8.5 14.086 8.5 13.379 8.94 12.94C9.378 12.5 10.085 12.5 11.5 12.5C12.915 12.5 13.621 12.5 14.06 12.94C14.5 13.379 14.5 14.086 14.5 15.5V21.5M14.5 21.5H20V19.5C20 18.086 20 17.379 19.56 16.94C19.121 16.5 18.414 16.5 17 16.5H16.5C15.557 16.5 15.086 16.5 14.793 16.793C14.5 17.086 14.5 17.557 14.5 18.5V21.5ZM1.5 21.5H21.5M12.191 2.07801L12.895 3.49801C12.9547 3.60441 13.0362 3.69705 13.134 3.76992C13.2319 3.8428 13.344 3.89428 13.463 3.92101L14.739 4.13401C15.555 4.27101 15.747 4.86801 15.159 5.45701L14.167 6.45701C14.08 6.55546 14.0162 6.67211 13.9802 6.79843C13.9443 6.92475 13.937 7.05752 13.959 7.18701L14.243 8.42501C14.467 9.40501 13.951 9.78401 13.091 9.27201L11.895 8.55801C11.7726 8.49454 11.6368 8.46141 11.499 8.46141C11.3612 8.46141 11.2254 8.49454 11.103 8.55801L9.907 9.27201C9.051 9.78401 8.531 9.40101 8.755 8.42501L9.039 7.18701C9.06101 7.05752 9.05375 6.92475 9.01775 6.79843C8.98176 6.67211 8.91795 6.55546 8.831 6.45701L7.84 5.45701C7.256 4.86801 7.444 4.27101 8.26 4.13401L9.535 3.92101C9.65341 3.89365 9.76477 3.84178 9.86191 3.76876C9.95906 3.69573 10.0398 3.60316 10.099 3.49701L10.803 2.07701C11.187 1.30701 11.811 1.30701 12.191 2.07701" stroke="url(#paint0_linear_154_153)" stroke-width="1.5" stroke-linecap="round" stroke-linejoin="round"/>
<defs>
<linearGradient id="paint0_linear_154_153" x1="11.5" y1="1.49951" x2="11.5" y2="21.5" gradientUnits="userSpaceOnUse">
<stop stop-color="#FFF130"/>
<stop offset="0.9999" stop-color="#A0971E"/>
<stop offset="1" stop-color="#99911D"/>
</linearGradient>
</defs>
</svg>
